PathFileType	4	(X/Y/Z)	Run_300 02
DataRate	CameraRate	NumFrames	NumMarkers	Units	OrigDataRate	OrigDataStartFrame	OrigNumFrames
100	100	6	42	mm	100	366	128
Frame#	Time	LASI			RASI			LPSI			RTH1			RTH2			RTH3			LTH1			LTH2			LTH3			RTB1			RTB2			RTB3			LTB1			LTB2			LTB3			RCAL			RTOE			RMT5			LCAL			LTOE			LMT5			LACR			RACR			CLAV			C7			RUA1			RUA2			RUA3			RLEL			RMEL			LUA1			LUA2			LUA3			LLEL			RFAsuperior			RFAradius			RFAulna			LFAsuperior			LFAradius			LFAulna			LMEL			RPSI		
		X1	Y1	Z1	X2	Y2	Z2	X3	Y3	Z3	X4	Y4	Z4	X5	Y5	Z5	X6	Y6	Z6	X7	Y7	Z7	X8	Y8	Z8	X9	Y9	Z9	X10	Y10	Z10	X11	Y11	Z11	X12	Y12	Z12	X13	Y13	Z13	X14	Y14	Z14	X15	Y15	Z15	X16	Y16	Z16	X17	Y17	Z17	X18	Y18	Z18	X19	Y19	Z19	X20	Y20	Z20	X21	Y21	Z21	X22	Y22	Z22	X23	Y23	Z23	X24	Y24	Z24	X25	Y25	Z25	X26	Y26	Z26	X27	Y27	Z27	X28	Y28	Z28	X29	Y29	Z29	X30	Y30	Z30	X31	Y31	Z31	X32	Y32	Z32	X33	Y33	Z33	X34	Y34	Z34	X35	Y35	Z35	X36	Y36	Z36	X37	Y37	Z37	X38	Y38	Z38	X39	Y39	Z39	X40	Y40	Z40	X41	Y41	Z41	X42	Y42	Z42	

366	  3.660000	1274.309215	990.481796	-494.036756	1263.331165	1000.201257	-247.619956	1113.240153	1049.219930	-437.637283	1244.110159	835.761631	-192.987064	1310.200396	753.026533	-206.776813	1288.375956	609.162893	-238.034607	1195.538006	835.151817	-554.781695	1214.944970	695.236460	-522.593836	1111.892380	601.471639	-525.266942	1396.689329	366.954210	-319.917937	1358.650816	255.635109	-288.395879	1393.958068	192.935794	-356.424278	928.250979	406.470103	-454.827677	862.736169	428.939610	-498.494406	788.815582	394.190366	-445.072922	1289.058754	 92.247406	-369.997081	1521.602709	105.097641	-370.670411	1504.623871	 66.757143	-299.563792	651.756305	486.254949	-438.340133	623.307943	202.480798	-369.180370	615.963123	264.403869	-479.218672	1312.810030	1523.081303	-514.621063	1268.847662	1481.227769	-174.558346	1329.470970	1443.261486	-311.218154	1224.052804	1537.877775	-353.286093	1169.054060	1374.799954	-111.413075	1103.078648	1387.611672	-130.169052	1091.930097	1313.745883	-113.646517	1032.591206	1251.751704	-114.068612	1014.339935	1273.285510	-203.048397	1253.179808	1424.477079	-603.471879	1167.998005	1387.637271	-600.886763	1197.137283	1310.467424	-635.822824	1167.787009	1245.903943	-651.654898	1105.764109	1203.014308	-125.726922	1239.166098	1117.249353	-199.566934	1194.408292	1063.624496	-183.542636	1234.136925	1191.925506	-624.047517	1355.115764	1130.183875	-503.263030	1331.510920	1068.455271	-531.025295	1116.037577	1243.481620	-574.199794	1100.125005	1050.114002	-344.501768	
367	  3.670000	1272.435990	982.272376	-493.724061	1261.115718	992.350705	-247.361008	1110.528523	1040.456622	-438.707284	1244.036386	832.248276	-194.092734	1311.312861	751.011327	-207.440953	1294.958141	607.642456	-237.165386	1196.312473	825.506745	-554.646964	1220.568333	686.564328	-525.259307	1121.463155	589.403595	-527.623848	1395.517762	362.574750	-320.275285	1349.628181	254.019311	-289.179549	1378.803338	189.689701	-358.169470	940.935252	401.279426	-458.183359	876.383870	427.260560	-501.318641	801.204601	396.053337	-448.392013	1264.235338	 95.931098	-370.918448	1498.903488	 91.090546	-372.761625	1479.917690	 57.988323	-300.146331	667.374664	494.576889	-437.559450	627.612835	208.725885	-382.687418	626.197334	275.680985	-487.471491	1311.611859	1513.639500	-516.044546	1270.406532	1469.175358	-173.467098	1331.196207	1432.885662	-311.571952	1225.589335	1527.912000	-352.434282	1174.116872	1358.096891	-109.337721	1106.974751	1368.162759	-125.184677	1099.477137	1293.400518	-110.680970	1041.974615	1230.168846	-109.310381	1020.734251	1251.986338	-197.343110	1248.143610	1414.049353	-602.399819	1162.186676	1378.274823	-597.721705	1189.397692	1300.566912	-632.172937	1158.714927	1237.345649	-648.381904	1115.960382	1182.549194	-122.544838	1249.028826	1099.750089	-199.941765	1205.695713	1044.844255	-183.774914	1223.785241	1179.403390	-625.098539	1346.687158	1107.932128	-511.074477	1318.539707	1048.606161	-540.043467	1109.910587	1234.875142	-569.034973	1098.545823	1042.224430	-346.471278	
368	  3.680000	1269.695922	975.135553	-493.102872	1258.033412	985.572829	-246.793573	1107.087563	1031.769187	-439.827636	1243.074483	829.357240	-194.247439	1312.142441	749.219359	-207.452309	1301.541865	606.781673	-235.622814	1196.942905	815.645762	-554.584376	1226.476195	678.902020	-527.617701	1131.432384	577.674478	-528.981477	1393.139039	359.966342	-320.979659	1340.638557	254.909305	-289.141447	1362.226801	189.230754	-359.283271	955.518309	396.151828	-460.848036	891.888133	424.800800	-503.716972	815.770637	396.831646	-451.312037	1238.348849	 99.317328	-370.792504	1473.677555	 83.047267	-375.078443	1453.949981	 55.511507	-300.777722	684.821694	500.614245	-437.836331	638.911102	211.722134	-393.284037	640.334695	284.301155	-495.211758	1310.421791	1504.361668	-517.575134	1271.808425	1457.163555	-171.960334	1332.751777	1423.023753	-311.806770	1227.094214	1519.096742	-351.217764	1179.266846	1339.967189	-107.663579	1111.194658	1347.150136	-119.711129	1107.511578	1271.683594	-108.616610	1051.988749	1207.683421	-104.772382	1027.608973	1229.757503	-191.759046	1243.049118	1403.431109	-601.395266	1156.196026	1368.807623	-594.345465	1181.626619	1290.454141	-627.929836	1149.462366	1228.507006	-644.894943	1126.496995	1160.643082	-119.271621	1259.419327	1081.858788	-200.292100	1217.425923	1025.707865	-184.315937	1212.612490	1166.402563	-625.792863	1336.694463	1084.970387	-519.464968	1304.167152	1028.434341	-549.375267	1104.238272	1225.960600	-563.843970	1096.056398	1034.331772	-348.180009	
369	  3.690000	1267.216864	969.401726	-492.199265	1255.212133	980.197960	-245.943712	1103.686731	1023.492180	-440.831900	1241.725839	826.195943	-193.345517	1312.409135	746.490391	-206.165855	1305.665265	604.721029	-234.462693	1197.676007	806.620055	-554.809856	1233.080186	672.835486	-529.778596	1142.144646	567.282792	-529.734895	1387.642215	357.193746	-322.624768	1329.545239	255.634413	-289.146744	1343.263137	188.892015	-360.447232	972.127659	391.207469	-462.821493	909.368633	421.620945	-505.792233	832.556947	396.587030	-453.839456	1211.246214	101.913779	-370.572765	1446.677463	 78.785953	-376.891697	1426.615946	 55.352441	-301.297846	703.386192	504.494745	-439.617975	655.002622	213.617635	-401.210762	658.570192	289.718260	-502.016592	1309.183249	1495.738514	-518.697500	1272.992707	1445.921217	-170.334141	1333.796903	1413.986495	-312.061975	1228.353486	1512.293690	-349.627403	1185.031207	1320.896840	-107.062354	1116.424156	1325.459375	-113.739130	1116.158318	1249.550265	-107.725292	1063.053485	1184.745512	-100.909945	1035.186372	1206.708992	-186.779333	1238.233506	1393.651567	-600.238783	1150.385532	1360.199396	-590.844659	1174.226174	1280.972193	-623.526166	1140.339551	1219.845851	-641.380723	1138.019600	1138.110724	-116.553330	1270.725062	1064.503235	-200.843509	1229.900208	1007.193802	-185.041000	1201.000917	1153.525628	-625.988272	1324.569000	1062.133215	-528.071093	1288.051728	1008.566276	-558.661192	1099.312060	1217.199019	-558.809017	1093.147128	1026.723971	-349.416989	
370	  3.700000	1265.702758	964.737826	-491.341422	1253.355805	975.892957	-245.139601	1100.681342	1016.109675	-441.557713	1240.611338	821.845535	-192.309264	1311.546447	741.771284	-204.351602	1305.465282	600.152081	-234.429170	1198.389696	799.325279	-555.358946	1240.478535	668.268689	-531.791317	1153.961617	558.960305	-530.744598	1377.937214	352.541169	-325.091311	1314.626230	254.179635	-289.739900	1321.361137	186.843392	-361.979157	990.521757	386.518298	-464.354009	928.694475	417.901674	-507.892673	851.326495	395.362505	-456.236278	1182.923310	103.552271	-370.924433	1418.423609	 76.319259	-377.948641	1397.949948	 54.998360	-301.585567	722.328601	506.291602	-442.930477	673.717449	215.847173	-407.372385	680.472871	291.664381	-507.503526	1307.480415	1488.444964	-519.179472	1274.122652	1436.006940	-169.025010	1334.245773	1406.000018	-312.529019	1229.147021	1507.346336	-347.961574	1192.115218	1302.515093	-107.964298	1123.383282	1304.965668	-108.056652	1125.541739	1228.940811	-107.697774	1075.524827	1162.566036	-98.169443	1043.436193	1183.746112	-182.745008	1233.885082	1385.629598	-598.992759	1145.034813	1353.272500	-587.485955	1167.491467	1273.037825	-619.679418	1131.769644	1212.096657	-638.177248	1151.384325	1117.223205	-115.311752	1283.320308	1048.971684	-201.774956	1243.494507	990.592814	-185.758404	1189.759653	1141.826977	-625.821591	1309.856021	1040.811972	-536.540440	1270.011645	990.052047	-567.523778	1094.904768	1209.197288	-554.156788	1090.238773	1019.997897	-350.119884	
371	  3.710000	1265.179637	960.576419	-491.044301	1252.490408	972.090386	-244.896209	1097.887597	1010.077253	-441.684186	1239.948721	816.271266	-192.063764	1309.156090	734.947472	-203.324172	1300.924081	593.243883	-235.513662	1198.639897	793.965921	-556.109902	1248.505932	664.788142	-533.650497	1167.150639	552.720804	-532.678726	1364.274102	345.546628	-327.557425	1295.941793	250.467806	-290.776149	1297.034164	183.263221	-363.537393	1010.255791	382.195188	-465.753566	949.479602	413.941382	-510.229181	871.614948	393.151282	-458.796538	1153.710125	104.558935	-371.668195	1389.256076	 74.676484	-378.560399	1368.328469	 54.251929	-301.746278	741.280574	505.941462	-447.421989	694.260512	217.589173	-412.045245	704.857140	290.247006	-511.521746	1304.712386	1483.014294	-519.228053	1275.638806	1427.766338	-168.287217	1334.218734	1399.395888	-313.267169	1229.202849	1503.253717	-346.519962	1200.689793	1287.084934	-110.141127	1132.036551	1287.766700	-103.940156	1135.599470	1211.933541	-107.936216	1089.213442	1143.117070	-96.750575	1051.777757	1162.965548	-179.646105	1229.661897	1379.834532	-597.868166	1140.068246	1348.316770	-584.704577	1161.347124	1267.290839	-616.960222	1123.991830	1206.204610	-635.709479	1166.665001	1100.798417	-115.987801	1297.268561	1036.828587	-203.126765	1258.417296	977.419531	-186.465572	1179.611718	1132.628461	-625.762204	1292.840813	1022.684186	-544.741007	1250.430425	974.362367	-575.837156	1090.314973	1202.781377	-550.294743	1087.587943	1014.687931	-350.054907	
